<svg xmlns="http://www.w3.org/2000/svg" viewBox="0 0 64 64" role="img" aria-label="CoWater icon">
  <defs>
    <linearGradient id="bg" x1="0" y1="0" x2="1" y2="1">
      <stop offset="0%" stop-color="#0f172a" />
      <stop offset="100%" stop-color="#0f3b57" />
    </linearGradient>
    <linearGradient id="wave" x1="0" y1="0" x2="1" y2="0">
      <stop offset="0%" stop-color="#38bdf8" />
      <stop offset="100%" stop-color="#22d3ee" />
    </linearGradient>
  </defs>
  <rect width="64" height="64" rx="14" fill="url(#bg)" />
  <path d="M14 39c4 0 4-4 8-4s4 4 8 4 4-4 8-4 4 4 8 4 4-4 8-4v11H14Z" fill="url(#wave)" opacity="0.95" />
  <path d="M22 30c0-7.2 4.7-12 10-12 4.9 0 8.7 3.8 8.7 9.2 0 6.8-5.8 12.8-14.2 12.8-4.8 0-8.8-2-11.5-5.6l4.7-4.1c1.7 2 3.9 3 6.3 3 4.2 0 7.3-2.7 7.3-6.1 0-2.5-1.7-4.1-4.1-4.1-2.6 0-4.3 1.7-4.3 4.4V30Z" fill="#f8fafc" />
</svg>
